<svg width="12" height="10" viewBox="0 0 12 10" fill="none" xmlns="http://www.w3.org/2000/svg">
<path d="M3.83995 1.33824H3.74271C3.79619 1.33824 3.83995 1.29806 3.83995 1.24895V1.33824H7.53536V1.24895C7.53536 1.29806 7.57912 1.33824 7.63261 1.33824H7.53536V2.14181H8.41059V1.24895C8.41059 0.85498 8.06171 0.534668 7.63261 0.534668H3.74271C3.3136 0.534668 2.96473 0.85498 2.96473 1.24895V2.14181H3.83995V1.33824ZM9.96655 2.14181H1.40877C1.19361 2.14181 1.01978 2.30141 1.01978 2.49895V2.8561C1.01978 2.9052 1.06354 2.94538 1.11702 2.94538H1.85124L2.15149 8.78244C2.17094 9.16302 2.51374 9.46324 2.92826 9.46324H8.44705C8.86279 9.46324 9.20437 9.16413 9.22382 8.78244L9.52407 2.94538H10.2583C10.3118 2.94538 10.3555 2.9052 10.3555 2.8561V2.49895C10.3555 2.30141 10.1817 2.14181 9.96655 2.14181ZM8.35345 8.65967H3.02186L2.72768 2.94538H8.64763L8.35345 8.65967Z" fill="black" fill-opacity="0.85"/>
</svg>
