<svg width="36" height="36" viewBox="0 0 36 36" fill="none" xmlns="http://www.w3.org/2000/svg">
<path d="M7.78224 27.6392C7.8626 27.6392 7.94296 27.6311 8.02331 27.6191L14.7813 26.4338C14.8617 26.4178 14.938 26.3816 14.9943 26.3213L32.026 9.28963C32.0632 9.25246 32.0928 9.20831 32.113 9.1597C32.1331 9.1111 32.1435 9.05899 32.1435 9.00637C32.1435 8.95375 32.1331 8.90164 32.113 8.85304C32.0928 8.80443 32.0632 8.76028 32.026 8.72311L25.3483 2.04141C25.272 1.96507 25.1715 1.9249 25.063 1.9249C24.9546 1.9249 24.8541 1.96507 24.7778 2.04141L7.74608 19.0731C7.68581 19.1334 7.64965 19.2057 7.63358 19.2861L6.44831 26.0441C6.40923 26.2593 6.42319 26.4809 6.489 26.6895C6.55481 26.8981 6.67048 27.0876 6.82599 27.2414C7.09117 27.4986 7.42465 27.6392 7.78224 27.6392ZM10.4903 20.632L25.063 6.06329L28.0081 9.00838L13.4354 23.5771L9.86349 24.2079L10.4903 20.632ZM32.7854 31.0142H3.21394C2.50278 31.0142 1.92822 31.5887 1.92822 32.2999V33.7463C1.92822 33.9231 2.07287 34.0678 2.24965 34.0678H33.7497C33.9264 34.0678 34.0711 33.9231 34.0711 33.7463V32.2999C34.0711 31.5887 33.4965 31.0142 32.7854 31.0142Z" fill="black" fill-opacity="0.85"/>
</svg>
